<svg width="30" height="31" viewBox="0 0 30 31" fill="none" xmlns="http://www.w3.org/2000/svg">
<path d="M15 0.140625C6.7 0.140625 0 6.84062 0 15.1406C0 23.4406 6.7 30.1406 15 30.1406C23.3 30.1406 30 23.4406 30 15.1406C30 6.84062 23.3 0.140625 15 0.140625ZM24 20.7406C24 21.2406 23.6 21.6406 23.1 21.6406H7C6.4 21.6406 6 21.1406 6 20.6406V10.9406L15 15.6406L24 10.9406V20.7406ZM24 9.84062L15 14.5406L6 9.84062V9.64062C6 9.14062 6.4 8.64062 7 8.64062H23C23.6 8.64062 24 9.14062 24 9.64062V9.84062Z" fill="white"/>
</svg>
