<svg width="30" height="31" viewBox="0 0 30 31" fill="none" xmlns="http://www.w3.org/2000/svg">
<path d="M15 0.140625C6.7 0.140625 0 6.84062 0 15.1406C0 23.4406 6.7 30.1406 15 30.1406C23.3 30.1406 30 23.4406 30 15.1406C30 6.84062 23.3 0.140625 15 0.140625ZM6.7 5.64062C7.1 5.34062 7.6 5.14062 8 5.14062C8.4 5.14062 9 5.34062 9.3 5.64062C9.6 6.04063 9.8 6.44063 9.8 6.94063C9.8 7.44063 9.6 7.94063 9.2 8.24063C9 8.64062 8.5 8.84062 8 8.84062C7.5 8.84062 7 8.64062 6.7 8.34062C6.4 7.94062 6.2 7.44063 6.2 6.94063C6.2 6.44063 6.4 6.04063 6.7 5.64062ZM9.9 21.7406H6.2V10.2406H9.9V21.7406ZM23.8 21.7406H20.1V15.6406C20.1 11.9406 15.7 12.2406 15.7 15.6406V21.7406H12.1V10.2406H15.8V11.7406C17.3 8.94063 23.9 8.74063 23.9 14.4406V21.7406H23.8Z" fill="white"/>
</svg>
