<svg width="46" height="45" viewBox="0 0 46 45" fill="none" xmlns="http://www.w3.org/2000/svg">
<g clip-path="url(#clip0_413_2653)">
<path d="M6.29298 7.34961V37.7246C2.61798 33.6746 0.367981 28.3496 0.367981 22.4996C0.367981 16.6496 2.61798 11.3246 6.29298 7.34961Z" fill="white"/>
<path d="M8.69298 10.6504L21.668 36.6754H8.69298V10.6504Z" fill="white"/>
<path d="M22.868 33.7492L10.118 8.32422H35.618L22.868 33.7492Z" fill="white"/>
<path d="M22.868 0C28.718 0 34.043 2.25 38.018 5.925H7.71799C11.693 2.25 17.018 0 22.868 0Z" fill="white"/>
<path d="M37.043 36.6754H24.068L37.043 10.6504V36.6754Z" fill="white"/>
<path d="M38.018 39.0742C34.043 42.7492 28.718 44.9992 22.868 44.9992C17.018 44.9992 11.693 42.7492 7.71799 39.0742H38.018Z" fill="white"/>
<path d="M39.443 37.6496V7.34961C43.118 11.3246 45.368 16.6496 45.368 22.4996C45.368 28.3496 43.118 33.6746 39.443 37.6496Z" fill="white"/>
<path d="M8.69298 10.6484L21.668 36.6734H8.69298V10.6484Z" fill="white"/>
<path d="M22.868 33.7492L10.118 8.32422H35.618L22.868 33.7492Z" fill="white"/>
<path d="M24.068 36.6734L37.043 10.6484V36.6734H24.068Z" fill="white"/>
<path d="M10.118 8.32422H35.618L22.868 33.7492L10.118 8.32422Z" fill="white"/>
</g>
<defs>
<clipPath id="clip0_413_2653">
<rect width="45" height="45" fill="white" transform="translate(0.367981)"/>
</clipPath>
</defs>
</svg>
